<svg width="1000" height="265" viewBox="0 0 1000 265" fill="none" xmlns="http://www.w3.org/2000/svg">
<g clip-path="url(#clip0_1_3)">
<g clip-path="url(#clip1_1_3)">
<g clip-path="url(#clip2_1_3)">
<g clip-path="url(#clip3_1_3)">
<g clip-path="url(#clip4_1_3)">
<g clip-path="url(#clip5_1_3)">
<g clip-path="url(#clip6_1_3)">
<path d="M349.624 188.259H328.512C327.339 188.259 326.379 187.854 325.633 187.043C324.886 186.254 324.513 185.326 324.513 184.26V101.409H296.043C294.87 101.409 293.91 101.004 293.164 100.193C292.417 99.4043 292.044 98.4766 292.044 97.4103V80.2963C292.044 79.1233 292.417 78.1637 293.164 77.4173C293.91 76.6709 294.87 76.2977 296.043 76.2977H382.093C383.266 76.2977 384.225 76.6709 384.972 77.4173C385.718 78.1637 386.091 79.1233 386.091 80.2963V97.4103C386.091 98.4766 385.718 99.4043 384.972 100.193C384.225 101.004 383.266 101.409 382.093 101.409H353.623V184.26C353.623 185.326 353.25 186.254 352.503 187.043C351.757 187.854 350.797 188.259 349.624 188.259ZM426.078 188.259H404.645C403.472 188.259 402.512 187.854 401.766 187.043C401.02 186.254 400.646 185.326 400.646 184.26V80.2963C400.646 79.1233 401.02 78.1637 401.766 77.4173C402.512 76.6709 403.472 76.2977 404.645 76.2977H426.078C427.25 76.2977 428.231 76.6709 429.021 77.4173C429.831 78.1637 430.236 79.1233 430.236 80.2963V184.26C430.236 185.326 429.831 186.254 429.021 187.043C428.231 187.854 427.25 188.259 426.078 188.259ZM475.66 188.259H456.467C455.401 188.259 454.462 187.854 453.652 187.043C452.863 186.254 452.468 185.326 452.468 184.26V80.2963C452.468 79.1233 452.863 78.1637 453.652 77.4173C454.462 76.6709 455.401 76.2977 456.467 76.2977H473.709C475.543 76.2977 476.876 76.7455 477.708 77.6412C478.582 78.5582 479.115 79.2833 479.307 79.8164L507.489 130.199L535.607 79.8164C535.927 79.2833 536.492 78.5582 537.303 77.6412C538.092 76.7455 539.393 76.2977 541.206 76.2977H558.352C559.503 76.2977 560.484 76.6709 561.295 77.4173C562.084 78.1637 562.478 79.1233 562.478 80.2963V184.26C562.478 185.326 562.084 186.254 561.295 187.043C560.484 187.854 559.503 188.259 558.352 188.259H539.286C538.135 188.259 537.154 187.854 536.343 187.043C535.554 186.254 535.16 185.326 535.16 184.26V124.281L517.214 157.709C516.681 158.669 515.998 159.522 515.167 160.268C514.314 161.015 513.13 161.388 511.616 161.388H503.299C501.806 161.388 500.644 161.015 499.812 160.268C498.938 159.522 498.234 158.669 497.701 157.709L479.659 124.281V184.26C479.659 185.326 479.275 186.254 478.507 187.043C477.782 187.854 476.833 188.259 475.66 188.259ZM634.613 188.259H613.5C612.327 188.259 611.368 187.854 610.621 187.043C609.875 186.254 609.502 185.326 609.502 184.26V101.409H581.032C579.859 101.409 578.899 101.004 578.153 100.193C577.406 99.4043 577.033 98.4766 577.033 97.4103V80.2963C577.033 79.1233 577.406 78.1637 578.153 77.4173C578.899 76.6709 579.859 76.2977 581.032 76.2977H667.082C668.255 76.2977 669.214 76.6709 669.961 77.4173C670.707 78.1637 671.08 79.1233 671.08 80.2963V97.4103C671.08 98.4766 670.707 99.4043 669.961 100.193C669.214 101.004 668.255 101.409 667.082 101.409H638.612V184.26C638.612 185.326 638.238 186.254 637.492 187.043C636.746 187.854 635.786 188.259 634.613 188.259ZM731.379 189.858C721.569 189.858 713.039 188.259 705.788 185.06C698.537 181.861 692.886 177.031 688.834 170.569C684.782 164.128 682.543 156.057 682.116 146.353C682.01 141.768 681.957 137.151 681.957 132.502C681.957 127.874 682.01 123.268 682.116 118.683C682.543 109.086 684.814 101.004 688.93 94.4353C693.025 87.8883 698.729 82.962 706.044 79.6565C713.338 76.351 721.783 74.6982 731.379 74.6982C741.083 74.6982 749.56 76.351 756.81 79.6565C764.061 82.962 769.766 87.8883 773.925 94.4353C778.083 101.004 780.322 109.086 780.642 118.683C780.855 123.268 780.962 127.874 780.962 132.502C780.962 137.151 780.855 141.768 780.642 146.353C780.322 156.057 778.115 164.128 774.021 170.569C769.905 177.031 764.221 181.861 756.97 185.06C749.72 188.259 741.189 189.858 731.379 189.858ZM731.379 166.826C737.031 166.826 741.648 165.12 745.231 161.708C748.792 158.296 750.679 152.858 750.893 145.394C751.106 140.702 751.212 136.277 751.212 132.118C751.212 127.96 751.106 123.641 750.893 119.163C750.679 114.151 749.752 110.067 748.109 106.911C746.446 103.776 744.175 101.462 741.296 99.9694C738.417 98.4766 735.111 97.7302 731.379 97.7302C727.754 97.7302 724.502 98.4766 721.623 99.9694C718.744 101.462 716.451 103.776 714.745 106.911C713.039 110.067 712.079 114.151 711.866 119.163C711.759 123.641 711.706 127.96 711.706 132.118C711.706 136.277 711.759 140.702 711.866 145.394C712.186 152.858 714.137 158.296 717.72 161.708C721.281 165.12 725.835 166.826 731.379 166.826ZM853.097 188.259H832.304C831.238 188.259 830.3 187.854 829.489 187.043C828.7 186.254 828.306 185.326 828.306 184.26V149.872L791.199 81.4159C791.092 81.096 790.985 80.7974 790.879 80.5202C790.772 80.2643 790.719 79.9764 790.719 79.6565C790.719 78.8034 791.06 78.0251 791.742 77.3213C792.446 76.6389 793.278 76.2977 794.237 76.2977H814.23C815.83 76.2977 817.078 76.6922 817.973 77.4812C818.89 78.2916 819.509 79.0167 819.829 79.6565L842.701 120.922L865.733 79.6565C866.052 79.0167 866.66 78.2916 867.556 77.4812C868.473 76.6922 869.731 76.2977 871.331 76.2977H891.324C892.283 76.2977 893.083 76.6389 893.723 77.3213C894.363 78.0251 894.683 78.8034 894.683 79.6565C894.683 79.9764 894.651 80.2643 894.587 80.5202C894.544 80.7974 894.469 81.096 894.363 81.4159L857.256 149.872V184.26C857.256 185.326 856.85 186.254 856.04 187.043C855.251 187.854 854.27 188.259 853.097 188.259ZM950.183 189.858C939.52 189.858 930.67 188.333 923.632 185.284C916.595 182.255 911.263 178.289 907.638 173.384C904.013 168.479 902.093 163.254 901.88 157.709C901.88 156.856 902.221 156.078 902.904 155.374C903.607 154.692 904.439 154.351 905.399 154.351H925.552C927.045 154.351 928.186 154.617 928.975 155.15C929.785 155.683 930.51 156.376 931.15 157.23C932.003 158.829 933.197 160.375 934.733 161.868C936.289 163.361 938.347 164.555 940.906 165.451C943.466 166.368 946.558 166.826 950.183 166.826C956.368 166.826 961.027 165.866 964.162 163.947C967.319 162.028 968.897 159.415 968.897 156.11C968.897 153.657 968.044 151.685 966.338 150.192C964.632 148.699 961.88 147.334 958.084 146.097C954.31 144.882 949.277 143.634 942.986 142.355C934.882 140.649 927.972 138.431 922.257 135.701C916.563 132.993 912.223 129.421 909.237 124.985C906.252 120.57 904.759 115.058 904.759 108.446C904.759 101.942 906.593 96.1308 910.261 91.0125C913.95 85.8943 919.101 81.8957 925.712 79.0167C932.323 76.1377 940.16 74.6982 949.224 74.6982C956.581 74.6982 963.053 75.6579 968.641 77.5772C974.249 79.4965 978.973 82.0557 982.812 85.2545C986.651 88.4534 989.551 91.8336 991.513 95.395C993.496 98.9778 994.541 102.475 994.648 105.887C994.648 106.74 994.349 107.508 993.752 108.191C993.176 108.894 992.355 109.246 991.289 109.246H970.176C969.003 109.246 967.99 109.033 967.137 108.606C966.284 108.18 965.538 107.487 964.898 106.527C964.258 104.181 962.574 102.123 959.844 100.353C957.135 98.6046 953.595 97.7302 949.224 97.7302C944.532 97.7302 940.874 98.5512 938.251 100.193C935.65 101.857 934.349 104.395 934.349 107.807C934.349 109.939 935.063 111.805 936.492 113.405C937.942 115.004 940.341 116.39 943.689 117.563C947.059 118.736 951.676 119.962 957.541 121.242C967.244 123.055 975.081 125.326 981.052 128.056C987.024 130.764 991.417 134.272 994.232 138.58C997.068 142.909 998.486 148.326 998.486 154.83C998.486 162.081 996.407 168.319 992.249 173.544C988.09 178.769 982.407 182.789 975.199 185.604C968.012 188.44 959.673 189.858 950.183 189.858Z" fill="#141C12"/>
</g>
</g>
</g>
</g>
<g clip-path="url(#clip7_1_3)">
<g clip-path="url(#clip8_1_3)">
<path d="M252.839 12.003H12.2883V252.553H252.839V12.003Z" fill="#141C12"/>
<path opacity="0.5" d="M264.842 0H24.2913V240.55H264.842V0Z" fill="#141C12"/>
<g clip-path="url(#clip9_1_3)">
<g clip-path="url(#clip10_1_3)">
<path d="M198.041 230.262C138.378 230.262 137.507 230.044 137.29 230.044C134.459 229.827 131.628 229.173 128.798 228.085C128.144 227.867 127.491 227.649 126.838 227.431C118.128 230.044 108.983 230.915 99.6196 229.609C71.3127 225.689 48.6672 202.391 45.8365 173.866C43.4413 149.261 55.1996 126.18 76.3209 113.768C78.4983 112.462 81.5468 112.897 83.2887 114.857C85.0307 116.817 85.0307 119.865 83.2887 121.825C76.5386 130.099 72.6192 140.551 72.6192 151.22C72.6192 171.688 86.3372 189.544 105.281 195.423C105.063 187.366 107.458 179.31 112.467 172.559C113.773 170.817 115.515 168.64 117.475 166.463C121.394 161.89 126.838 157.535 132.717 152.962C139.903 147.083 147.524 141.204 150.79 135.543C153.403 131.188 155.798 126.833 157.758 123.567C149.266 116.599 144.04 106.583 143.604 95.6953C143.169 83.5015 148.395 71.961 157.975 64.3399L177.137 36.6863C178.444 34.7266 181.056 33.8556 183.234 34.5088C185.411 35.162 187.153 37.3395 187.153 39.7347V56.5011C195.863 57.8076 204.137 62.1625 210.017 68.9126C211.541 70.6546 212.194 72.832 212.194 75.6627C212.194 81.5418 215.243 86.3322 217.638 89.1629C218.944 90.6871 219.597 92.4291 219.597 94.3888C219.597 105.276 215.025 115.292 207.186 122.478C208.275 124.655 208.71 127.268 208.71 129.664C207.404 151.003 197.605 160.801 192.597 164.503V188.019C192.597 192.592 194.339 196.947 197.387 199.995C199.129 201.737 201.089 203.044 202.831 203.915C208.057 205.875 211.759 211.1 211.759 216.762C211.759 224.165 205.444 230.262 198.041 230.262ZM127.056 216.109C127.927 216.109 128.798 216.326 129.451 216.762C130.322 217.197 131.193 217.633 132.281 218.068C134.241 218.721 136.201 219.157 137.943 219.375C139.467 219.375 174.742 219.375 197.823 219.592C199.347 219.592 200.436 218.286 200.436 216.762C200.436 215.455 199.565 214.584 198.694 214.149C195.428 212.842 192.161 210.665 189.113 207.616C184.105 202.391 181.274 195.423 181.274 188.019V161.454C181.274 159.277 182.581 157.317 184.54 156.446C184.976 156.229 196.081 150.567 197.387 128.793C197.387 127.704 196.952 126.397 195.863 125.526C194.557 124.438 193.686 122.696 193.686 120.954C193.686 119.212 194.557 117.688 196.081 116.599C203.484 111.808 207.839 103.752 208.275 95.0421C203.266 89.1629 200.654 82.1951 200.871 75.2272C195.645 69.7836 188.678 66.7351 181.056 66.7351C178.008 66.7351 175.613 64.3399 175.613 61.2915V56.9366L166.468 71.3078C166.032 71.7433 165.814 72.1788 165.379 72.6143C158.193 78.0579 154.274 86.55 154.492 95.4775C154.927 104.623 159.717 112.897 167.774 117.688C170.387 119.212 171.258 122.478 169.516 125.091C168.209 127.268 164.29 134.018 160.153 141.204C155.798 148.607 147.524 155.358 139.467 161.672C134.023 166.027 129.015 169.946 125.749 173.866C124.007 175.826 122.483 177.785 121.394 179.31C116.822 185.624 115.297 193.681 117.257 201.302C117.693 203.044 117.257 205.004 116.168 206.31C114.862 207.616 113.12 208.27 111.378 208.052C83.2887 204.133 62.1674 179.745 62.1674 151.438C62.1674 148.825 62.3852 145.994 62.8207 143.382C58.248 152.091 56.0706 162.325 57.1593 172.777C59.3367 196.294 78.0628 215.673 101.579 218.939C109.854 220.028 118.128 219.157 125.749 216.544C125.967 216.326 126.402 216.109 127.056 216.109Z" fill="white"/>
</g>
</g>
</g>
</g>
</g>
</g>
</g>
<defs>
<clipPath id="clip0_1_3">
<rect width="1000" height="265" fill="white" transform="translate(-0.606079 -0.221817)"/>
</clipPath>
<clipPath id="clip1_1_3">
<rect width="998.217" height="264.556" fill="white" transform="translate(0.285339)"/>
</clipPath>
<clipPath id="clip2_1_3">
<rect width="998.217" height="264.556" fill="white" transform="translate(0.285339)"/>
</clipPath>
<clipPath id="clip3_1_3">
<rect width="706.474" height="115.16" fill="white" transform="translate(292.028 74.6982)"/>
</clipPath>
<clipPath id="clip4_1_3">
<rect width="706.474" height="115.16" fill="white" transform="translate(292.028 74.6982)"/>
</clipPath>
<clipPath id="clip5_1_3">
<rect width="706.474" height="115.16" fill="white" transform="translate(292.028 74.6982)"/>
</clipPath>
<clipPath id="clip6_1_3">
<rect width="706.474" height="115.16" fill="white" transform="translate(292.028 74.6982)"/>
</clipPath>
<clipPath id="clip7_1_3">
<rect width="264.556" height="264.556" fill="white" transform="translate(0.285339)"/>
</clipPath>
<clipPath id="clip8_1_3">
<rect width="264.556" height="264.556" fill="white" transform="translate(0.285339)"/>
</clipPath>
<clipPath id="clip9_1_3">
<rect width="174.068" height="195.968" fill="white" transform="translate(45.5295 34.2943)"/>
</clipPath>
<clipPath id="clip10_1_3">
<rect width="174.068" height="195.968" fill="white" transform="translate(45.5295 34.2943)"/>
</clipPath>
</defs>
</svg>
