<svg width="186" height="181" viewBox="0 0 186 181" fill="none" xmlns="http://www.w3.org/2000/svg">
<g clip-path="url(#clip0_1_20)">
<g clip-path="url(#clip1_1_20)">
<path d="M176.787 8.40211H8.40211V176.787H176.787V8.40211Z" fill="#2A160C"/>
<path opacity="0.5" d="M185.189 0H16.8042V168.385H185.189V0Z" fill="#2A160C"/>
<g clip-path="url(#clip2_1_20)">
<g clip-path="url(#clip3_1_20)">
<path d="M138.429 161.183C96.6651 161.183 96.0554 161.031 95.903 161.031C93.9215 160.879 91.9401 160.421 89.9586 159.659C89.5013 159.507 89.044 159.354 88.5868 159.202C82.4899 161.031 76.0882 161.641 69.534 160.726C49.7192 157.983 33.8673 141.673 31.8858 121.706C30.2092 104.482 38.44 88.3258 53.2249 79.6377C54.7491 78.7232 56.883 79.028 58.1024 80.3998C59.3218 81.7716 59.3218 83.9055 58.1024 85.2773C53.3773 91.0694 50.6337 98.3856 50.6337 105.854C50.6337 120.182 60.2363 132.681 73.497 136.796C73.3446 131.156 75.0212 125.517 78.5269 120.792C79.4415 119.572 80.6608 118.048 82.0326 116.524C84.7762 113.323 88.5868 110.275 92.7022 107.074C97.7321 102.958 103.067 98.8429 105.353 94.8799C107.182 91.8315 108.859 88.783 110.231 86.4967C104.286 81.6192 100.628 74.6078 100.323 66.9867C100.018 58.4511 103.677 50.3727 110.383 45.038L123.796 25.6804C124.711 24.3086 126.54 23.6989 128.064 24.1562C129.588 24.6134 130.808 26.1377 130.808 27.8143V39.5508C136.904 40.4653 142.697 43.5137 146.812 48.2388C147.879 49.4582 148.336 50.9824 148.336 52.9639C148.336 57.0793 150.47 60.4326 152.147 62.4141C153.061 63.481 153.518 64.7004 153.518 66.0722C153.518 73.6933 150.318 80.7047 144.83 85.7346C145.593 87.2588 145.897 89.0879 145.897 90.7645C144.983 105.702 138.124 112.561 134.618 115.152V131.614C134.618 134.814 135.838 137.863 137.971 139.997C139.191 141.216 140.563 142.131 141.782 142.74C145.44 144.112 148.031 147.77 148.031 151.733C148.031 156.916 143.611 161.183 138.429 161.183ZM88.7392 151.276C89.3489 151.276 89.9586 151.428 90.4158 151.733C91.0255 152.038 91.6352 152.343 92.3973 152.648C93.7691 153.105 95.1409 153.41 96.3603 153.562C97.4272 153.562 122.12 153.562 138.276 153.715C139.343 153.715 140.105 152.8 140.105 151.733C140.105 150.819 139.496 150.209 138.886 149.904C136.6 148.99 134.313 147.465 132.179 145.332C128.674 141.673 126.692 136.796 126.692 131.614V113.018C126.692 111.494 127.607 110.122 128.979 109.512C129.283 109.36 137.057 105.397 137.971 90.1548C137.971 89.3927 137.667 88.4782 136.904 87.8685C135.99 87.1064 135.38 85.887 135.38 84.6676C135.38 83.4483 135.99 82.3813 137.057 81.6192C142.239 78.2659 145.288 72.6263 145.593 66.5294C142.087 62.4141 140.258 57.5366 140.41 52.6591C136.752 48.8485 131.875 46.7146 126.54 46.7146C124.406 46.7146 122.729 45.038 122.729 42.9041V39.8556L116.328 49.9155C116.023 50.2203 115.87 50.5251 115.565 50.83C110.536 54.6405 107.792 60.585 107.944 66.8343C108.249 73.236 111.602 79.028 117.242 82.3813C119.071 83.4483 119.681 85.7346 118.461 87.5637C117.547 89.0879 114.803 93.813 111.907 98.8429C108.859 104.025 103.067 108.75 97.4272 113.171C93.6167 116.219 90.111 118.963 87.8247 121.706C86.6053 123.078 85.5383 124.45 84.7762 125.517C81.5754 129.937 80.5084 135.577 81.8802 140.911C82.1851 142.131 81.8802 143.502 81.1181 144.417C80.2036 145.332 78.9842 145.789 77.7648 145.636C58.1024 142.893 43.3175 125.822 43.3175 106.007C43.3175 104.178 43.4699 102.196 43.7748 100.367C40.5739 106.464 39.0497 113.628 39.8118 120.944C41.336 137.406 54.4443 150.971 70.9058 153.257C76.6979 154.02 82.4899 153.41 87.8247 151.581C87.9771 151.428 88.2819 151.276 88.7392 151.276Z" fill="white"/>
</g>
</g>
</g>
</g>
<defs>
<clipPath id="clip0_1_20">
<rect width="185.189" height="185.189" fill="white"/>
</clipPath>
<clipPath id="clip1_1_20">
<rect width="185.189" height="185.189" fill="white"/>
</clipPath>
<clipPath id="clip2_1_20">
<rect width="121.848" height="137.177" fill="white" transform="translate(31.671 24.006)"/>
</clipPath>
<clipPath id="clip3_1_20">
<rect width="121.848" height="137.177" fill="white" transform="translate(31.671 24.006)"/>
</clipPath>
</defs>
</svg>
