<svg xmlns="http://www.w3.org/2000/svg" version="1.1" xmlns:xlink="http://www.w3.org/1999/xlink" xmlns:svgjs="http://svgjs.dev/svgjs" width="1000" height="265" viewBox="0 0 1000 265"><g transform="matrix(1,0,0,1,-0.606054668793945,-0.22181652817423014)"><svg viewBox="0 0 396 105" data-background-color="#ffffff" preserveAspectRatio="xMidYMid meet" height="265" width="1000" xmlns="http://www.w3.org/2000/svg" xmlns:xlink="http://www.w3.org/1999/xlink"><g id="tight-bounds" transform="matrix(1,0,0,1,0.2399976488424045,0.0878895677671494)"><svg viewBox="0 0 395.52 104.82422086446569" height="104.82422086446569" width="395.52"><g><svg viewBox="0 0 558.8523990270319 148.11202292234552" height="104.82422086446569" width="395.52"><g transform="matrix(1,0,0,1,163.33239902703195,41.819833059542695)"><svg viewBox="0 0 395.52 64.47235680326013" height="64.47235680326013" width="395.52"><g id="textblocktransform"><svg viewBox="0 0 395.52 64.47235680326013" height="64.47235680326013" width="395.52" id="textblock"><g><svg viewBox="0 0 395.52 64.47235680326013" height="64.47235680326013" width="395.52"><g transform="matrix(1,0,0,1,0,0)"><svg width="395.52" viewBox="1.0499999523162842 -35.5 220.83999633789062 36" height="64.47235680326013" data-palette-color="#471414"><path d="M19.05 0L12.45 0Q11.9 0 11.55-0.38 11.2-0.75 11.2-1.25L11.2-1.25 11.2-27.15 2.3-27.15Q1.75-27.15 1.4-27.53 1.05-27.9 1.05-28.4L1.05-28.4 1.05-33.75Q1.05-34.3 1.4-34.65 1.75-35 2.3-35L2.3-35 29.2-35Q29.75-35 30.1-34.65 30.45-34.3 30.45-33.75L30.45-33.75 30.45-28.4Q30.45-27.9 30.1-27.53 29.75-27.15 29.2-27.15L29.2-27.15 20.3-27.15 20.3-1.25Q20.3-0.75 19.95-0.38 19.6 0 19.05 0L19.05 0ZM42.95 0L36.25 0Q35.7 0 35.35-0.38 35-0.75 35-1.25L35-1.25 35-33.75Q35-34.3 35.35-34.65 35.7-35 36.25-35L36.25-35 42.95-35Q43.5-35 43.87-34.65 44.25-34.3 44.25-33.75L44.25-33.75 44.25-1.25Q44.25-0.75 43.87-0.38 43.5 0 42.95 0L42.95 0ZM58.45 0L52.45 0Q51.95 0 51.57-0.38 51.2-0.75 51.2-1.25L51.2-1.25 51.2-33.75Q51.2-34.3 51.57-34.65 51.95-35 52.45-35L52.45-35 57.84-35Q58.7-35 59.09-34.58 59.5-34.15 59.59-33.9L59.59-33.9 68.4-18.15 77.19-33.9Q77.34-34.15 77.72-34.58 78.09-35 78.94-35L78.94-35 84.3-35Q84.84-35 85.22-34.65 85.59-34.3 85.59-33.75L85.59-33.75 85.59-1.25Q85.59-0.75 85.22-0.38 84.84 0 84.3 0L84.3 0 78.34 0Q77.8 0 77.42-0.38 77.05-0.75 77.05-1.25L77.05-1.25 77.05-20 71.44-9.55Q71.19-9.1 70.8-8.75 70.4-8.4 69.69-8.4L69.69-8.4 67.09-8.4Q66.39-8.4 66-8.75 65.59-9.1 65.34-9.55L65.34-9.55 59.7-20 59.7-1.25Q59.7-0.75 59.34-0.38 59 0 58.45 0L58.45 0ZM108.14 0L101.54 0Q100.99 0 100.64-0.38 100.29-0.75 100.29-1.25L100.29-1.25 100.29-27.15 91.39-27.15Q90.84-27.15 90.49-27.53 90.14-27.9 90.14-28.4L90.14-28.4 90.14-33.75Q90.14-34.3 90.49-34.65 90.84-35 91.39-35L91.39-35 118.29-35Q118.84-35 119.19-34.65 119.54-34.3 119.54-33.75L119.54-33.75 119.54-28.4Q119.54-27.9 119.19-27.53 118.84-27.15 118.29-27.15L118.29-27.15 109.39-27.15 109.39-1.25Q109.39-0.75 109.04-0.38 108.69 0 108.14 0L108.14 0ZM138.39 0.5L138.39 0.5Q133.79 0.5 130.39-1 126.99-2.5 125.09-5.53 123.19-8.55 122.99-13.1L122.99-13.1Q122.94-15.25 122.94-17.43 122.94-19.6 122.99-21.75L122.99-21.75Q123.19-26.25 125.12-29.33 127.04-32.4 130.47-33.95 133.89-35.5 138.39-35.5L138.39-35.5Q142.94-35.5 146.34-33.95 149.74-32.4 151.69-29.33 153.64-26.25 153.79-21.75L153.79-21.75Q153.89-19.6 153.89-17.43 153.89-15.25 153.79-13.1L153.79-13.1Q153.64-8.55 151.72-5.53 149.79-2.5 146.39-1 142.99 0.5 138.39 0.5ZM138.39-6.7L138.39-6.7Q141.04-6.7 142.72-8.3 144.39-9.9 144.49-13.4L144.49-13.4Q144.59-15.6 144.59-17.55 144.59-19.5 144.49-21.6L144.49-21.6Q144.39-23.95 143.62-25.43 142.84-26.9 141.49-27.6 140.14-28.3 138.39-28.3L138.39-28.3Q136.69-28.3 135.34-27.6 133.99-26.9 133.19-25.43 132.39-23.95 132.29-21.6L132.29-21.6Q132.24-19.5 132.24-17.55 132.24-15.6 132.29-13.4L132.29-13.4Q132.44-9.9 134.12-8.3 135.79-6.7 138.39-6.7ZM176.44 0L169.94 0Q169.44 0 169.06-0.38 168.69-0.75 168.69-1.25L168.69-1.25 168.69-12 157.09-33.4Q157.04-33.55 156.99-33.68 156.94-33.8 156.94-33.95L156.94-33.95Q156.94-34.35 157.26-34.68 157.59-35 158.04-35L158.04-35 164.29-35Q165.04-35 165.46-34.63 165.89-34.25 166.04-33.95L166.04-33.95 173.19-21.05 180.39-33.95Q180.54-34.25 180.96-34.63 181.39-35 182.14-35L182.14-35 188.39-35Q188.84-35 189.14-34.68 189.44-34.35 189.44-33.95L189.44-33.95Q189.44-33.8 189.41-33.68 189.39-33.55 189.34-33.4L189.34-33.4 177.74-12 177.74-1.25Q177.74-0.75 177.36-0.38 176.99 0 176.44 0L176.44 0ZM206.79 0.5L206.79 0.5Q201.79 0.5 198.49-0.93 195.19-2.35 193.49-4.65 191.79-6.95 191.69-9.55L191.69-9.55Q191.69-9.95 192.01-10.28 192.34-10.6 192.79-10.6L192.79-10.6 199.09-10.6Q199.79-10.6 200.16-10.35 200.54-10.1 200.84-9.7L200.84-9.7Q201.24-8.95 201.96-8.25 202.69-7.55 203.89-7.13 205.09-6.7 206.79-6.7L206.79-6.7Q209.69-6.7 211.16-7.6 212.64-8.5 212.64-10.05L212.64-10.05Q212.64-11.2 211.84-11.9 211.04-12.6 209.26-13.18 207.49-13.75 204.54-14.35L204.54-14.35Q200.74-15.15 198.06-16.43 195.39-17.7 193.99-19.78 192.59-21.85 192.59-24.95L192.59-24.95Q192.59-28 194.31-30.4 196.04-32.8 199.14-34.15 202.24-35.5 206.49-35.5L206.49-35.5Q209.94-35.5 212.56-34.6 215.19-33.7 216.99-32.2 218.79-30.7 219.71-29.03 220.64-27.35 220.69-25.75L220.69-25.75Q220.69-25.35 220.41-25.03 220.14-24.7 219.64-24.7L219.64-24.7 213.04-24.7Q212.49-24.7 212.09-24.9 211.69-25.1 211.39-25.55L211.39-25.55Q211.09-26.65 209.81-27.48 208.54-28.3 206.49-28.3L206.49-28.3Q204.29-28.3 203.06-27.53 201.84-26.75 201.84-25.15L201.84-25.15Q201.84-24.15 202.51-23.4 203.19-22.65 204.76-22.1 206.34-21.55 209.09-20.95L209.09-20.95Q213.64-20.1 216.44-18.82 219.24-17.55 220.56-15.53 221.89-13.5 221.89-10.45L221.89-10.45Q221.89-7.05 219.94-4.6 217.99-2.15 214.61-0.83 211.24 0.5 206.79 0.5Z" opacity="1" transform="matrix(1,0,0,1,0,0)" fill="#471414" class="undefined-text-0" data-fill-palette-color="primary" id="text-0"></path></svg></g></svg></g></svg></g></svg></g><g><svg viewBox="0 0 148.11202292234552 148.11202292234552" height="148.11202292234552" width="148.11202292234552"><g><svg></svg></g><g id="icon-0"><svg viewBox="0 0 148.11202292234552 148.11202292234552" height="148.11202292234552" width="148.11202292234552"><g><rect width="134.67222824976233" height="134.67222824976233" x="6.719897336291595" y="6.719897336291595" fill="#2a160c" data-fill-palette-color="accent"></rect><rect width="134.67222824976233" height="134.67222824976233" x="13.439794672583197" y="-6.217248937900877e-15" fill="#2a160c" opacity="0.5" data-fill-palette-color="accent"></rect></g><g transform="matrix(1,0,0,1,25.330007434659294,19.19970667511886)"><svg viewBox="0 0 97.45200805302693 109.7126095721078" height="109.7126095721078" width="97.45200805302693"><g><svg xmlns="http://www.w3.org/2000/svg" xmlns:xlink="http://www.w3.org/1999/xlink" version="1.1" x="0" y="0" viewBox="9.959016799926758 5.001504898071289 79.94098663330078 89.99849700927734" enable-background="new 0 0 100 100" xml:space="preserve" height="109.7126095721078" width="97.45200805302693" class="icon-s-0" data-fill-palette-color="background" id="s-0"><path d="M80 95C80 95 80 95 80 95c-27.4 0-27.8-0.1-27.9-0.1-1.3-0.1-2.6-0.4-3.9-0.9-0.3-0.1-0.6-0.2-0.9-0.3-4 1.2-8.2 1.6-12.5 1-13-1.8-23.4-12.5-24.7-25.6-1.1-11.3 4.3-21.9 14-27.6 1-0.6 2.4-0.4 3.2 0.5 0.8 0.9 0.8 2.3 0 3.2-3.1 3.8-4.9 8.6-4.9 13.5 0 9.4 6.3 17.6 15 20.3-0.1-3.7 1-7.4 3.3-10.5 0.6-0.8 1.4-1.8 2.3-2.8 1.8-2.1 4.3-4.1 7-6.2 3.3-2.7 6.8-5.4 8.3-8 1.2-2 2.3-4 3.2-5.5-3.9-3.2-6.3-7.8-6.5-12.8-0.2-5.6 2.2-10.9 6.6-14.4l8.8-12.7c0.6-0.9 1.8-1.3 2.8-1 1 0.3 1.8 1.3 1.8 2.4v7.7c4 0.6 7.8 2.6 10.5 5.7 0.7 0.8 1 1.8 1 3.1 0 2.7 1.4 4.9 2.5 6.2 0.6 0.7 0.9 1.5 0.9 2.4 0 5-2.1 9.6-5.7 12.9 0.5 1 0.7 2.2 0.7 3.3-0.6 9.8-5.1 14.3-7.4 16v10.8c0 2.1 0.8 4.1 2.2 5.5 0.8 0.8 1.7 1.4 2.5 1.8 2.4 0.9 4.1 3.3 4.1 5.9C86.3 92.2 83.4 95 80 95zM47.4 88.5c0.4 0 0.8 0.1 1.1 0.3 0.4 0.2 0.8 0.4 1.3 0.6 0.9 0.3 1.8 0.5 2.6 0.6 0.7 0 16.9 0 27.5 0.1 0.7 0 1.2-0.6 1.2-1.3 0-0.6-0.4-1-0.8-1.2-1.5-0.6-3-1.6-4.4-3-2.3-2.4-3.6-5.6-3.6-9V63.4c0-1 0.6-1.9 1.5-2.3 0.2-0.1 5.3-2.7 5.9-12.7 0-0.5-0.2-1.1-0.7-1.5-0.6-0.5-1-1.3-1-2.1 0-0.8 0.4-1.5 1.1-2 3.4-2.2 5.4-5.9 5.6-9.9-2.3-2.7-3.5-5.9-3.4-9.1 0 0 0 0 0 0-2.4-2.5-5.6-3.9-9.1-3.9-1.4 0-2.5-1.1-2.5-2.5v-2L65.5 22c-0.2 0.2-0.3 0.4-0.5 0.6-3.3 2.5-5.1 6.4-5 10.5 0.2 4.2 2.4 8 6.1 10.2 1.2 0.7 1.6 2.2 0.8 3.4-0.6 1-2.4 4.1-4.3 7.4-2 3.4-5.8 6.5-9.5 9.4-2.5 2-4.8 3.8-6.3 5.6-0.8 0.9-1.5 1.8-2 2.5-2.1 2.9-2.8 6.6-1.9 10.1 0.2 0.8 0 1.7-0.5 2.3-0.6 0.6-1.4 0.9-2.2 0.8-12.9-1.8-22.6-13-22.6-26 0-1.2 0.1-2.5 0.3-3.7-2.1 4-3.1 8.7-2.6 13.5 1 10.8 9.6 19.7 20.4 21.2 3.8 0.5 7.6 0.1 11.1-1.1C46.9 88.6 47.1 88.5 47.4 88.5z" fill="#ffffff" data-fill-palette-color="background"></path></svg></g></svg></g></svg></g></svg></g></svg></g><defs></defs></svg><rect width="395.52" height="104.82422086446569" fill="none" stroke="none" visibility="hidden"></rect></g></svg></g></svg>