<svg width="999" height="265" viewBox="0 0 999 265" fill="none" xmlns="http://www.w3.org/2000/svg">
<g clip-path="url(#clip0_3_8)">
<g clip-path="url(#clip1_3_8)">
<g clip-path="url(#clip2_3_8)">
<g clip-path="url(#clip3_3_8)">
<g clip-path="url(#clip4_3_8)">
<path d="M349.339 188.259H328.226C327.053 188.259 326.094 187.854 325.347 187.043C324.601 186.254 324.228 185.326 324.228 184.26V101.409H295.757C294.585 101.409 293.625 101.004 292.878 100.193C292.132 99.4043 291.759 98.4766 291.759 97.4103V80.2962C291.759 79.1233 292.132 78.1637 292.878 77.4172C293.625 76.6708 294.585 76.2976 295.757 76.2976H381.808C382.98 76.2976 383.94 76.6708 384.687 77.4172C385.433 78.1637 385.806 79.1233 385.806 80.2962V97.4103C385.806 98.4766 385.433 99.4043 384.687 100.193C383.94 101.004 382.98 101.409 381.808 101.409H353.337V184.26C353.337 185.326 352.964 186.254 352.218 187.043C351.471 187.854 350.512 188.259 349.339 188.259ZM425.792 188.259H404.36C403.187 188.259 402.227 187.854 401.481 187.043C400.734 186.254 400.361 185.326 400.361 184.26V80.2962C400.361 79.1233 400.734 78.1637 401.481 77.4172C402.227 76.6708 403.187 76.2976 404.36 76.2976H425.792C426.965 76.2976 427.946 76.6708 428.735 77.4172C429.546 78.1637 429.951 79.1233 429.951 80.2962V184.26C429.951 185.326 429.546 186.254 428.735 187.043C427.946 187.854 426.965 188.259 425.792 188.259ZM475.375 188.259H456.182C455.115 188.259 454.177 187.854 453.367 187.043C452.578 186.254 452.183 185.326 452.183 184.26V80.2962C452.183 79.1233 452.578 78.1637 453.367 77.4172C454.177 76.6708 455.115 76.2976 456.182 76.2976H473.424C475.258 76.2976 476.591 76.7455 477.422 77.6412C478.297 78.5582 478.83 79.2833 479.022 79.8164L507.204 130.199L535.322 79.8164C535.642 79.2833 536.207 78.5582 537.018 77.6412C537.807 76.7455 539.107 76.2976 540.92 76.2976H558.066C559.218 76.2976 560.199 76.6708 561.009 77.4172C561.798 78.1637 562.193 79.1233 562.193 80.2962V184.26C562.193 185.326 561.798 186.254 561.009 187.043C560.199 187.854 559.218 188.259 558.066 188.259H539.001C537.849 188.259 536.868 187.854 536.058 187.043C535.269 186.254 534.874 185.326 534.874 184.26V124.281L516.929 157.709C516.395 158.669 515.713 159.522 514.881 160.268C514.028 161.015 512.845 161.388 511.33 161.388H503.013C501.521 161.388 500.358 161.015 499.527 160.268C498.652 159.522 497.948 158.669 497.415 157.709L479.374 124.281V184.26C479.374 185.326 478.99 186.254 478.222 187.043C477.497 187.854 476.548 188.259 475.375 188.259ZM634.328 188.259H613.215C612.042 188.259 611.082 187.854 610.336 187.043C609.59 186.254 609.216 185.326 609.216 184.26V101.409H580.746C579.573 101.409 578.614 101.004 577.867 100.193C577.121 99.4043 576.748 98.4766 576.748 97.4103V80.2962C576.748 79.1233 577.121 78.1637 577.867 77.4172C578.614 76.6708 579.573 76.2976 580.746 76.2976H666.796C667.969 76.2976 668.929 76.6708 669.675 77.4172C670.422 78.1637 670.795 79.1233 670.795 80.2962V97.4103C670.795 98.4766 670.422 99.4043 669.675 100.193C668.929 101.004 667.969 101.409 666.796 101.409H638.326V184.26C638.326 185.326 637.953 186.254 637.207 187.043C636.46 187.854 635.501 188.259 634.328 188.259ZM731.094 189.858C721.284 189.858 712.754 188.259 705.503 185.06C698.252 181.861 692.601 177.031 688.549 170.569C684.497 164.128 682.258 156.057 681.831 146.353C681.724 141.768 681.671 137.151 681.671 132.502C681.671 127.874 681.724 123.268 681.831 118.683C682.258 109.086 684.529 101.004 688.645 94.4353C692.739 87.8883 698.444 82.962 705.759 79.6565C713.052 76.351 721.497 74.6982 731.094 74.6982C740.797 74.6982 749.274 76.351 756.525 79.6565C763.776 82.962 769.481 87.8883 773.639 94.4353C777.798 101.004 780.037 109.086 780.357 118.683C780.57 123.268 780.677 127.874 780.677 132.502C780.677 137.151 780.57 141.768 780.357 146.353C780.037 156.057 777.83 164.128 773.735 170.569C769.619 177.031 763.936 181.861 756.685 185.06C749.434 188.259 740.904 189.858 731.094 189.858ZM731.094 166.826C736.745 166.826 741.362 165.12 744.945 161.708C748.507 158.296 750.394 152.858 750.607 145.394C750.82 140.702 750.927 136.277 750.927 132.118C750.927 127.96 750.82 123.641 750.607 119.163C750.394 114.151 749.466 110.067 747.824 106.911C746.161 103.776 743.89 101.462 741.011 99.9694C738.132 98.4766 734.826 97.7302 731.094 97.7302C727.469 97.7302 724.216 98.4766 721.337 99.9694C718.458 101.462 716.166 103.776 714.46 106.911C712.754 110.067 711.794 114.151 711.581 119.163C711.474 123.641 711.421 127.96 711.421 132.118C711.421 136.277 711.474 140.702 711.581 145.394C711.901 152.858 713.852 158.296 717.435 161.708C720.996 165.12 725.549 166.826 731.094 166.826ZM852.812 188.259H832.019C830.953 188.259 830.014 187.854 829.204 187.043C828.415 186.254 828.02 185.326 828.02 184.26V149.872L790.913 81.4159C790.807 81.096 790.7 80.7974 790.593 80.5202C790.487 80.2643 790.433 79.9764 790.433 79.6565C790.433 78.8034 790.775 78.025 791.457 77.3213C792.161 76.6389 792.992 76.2976 793.952 76.2976H813.945C815.545 76.2976 816.792 76.6922 817.688 77.4812C818.605 78.2916 819.223 79.0167 819.543 79.6565L842.415 120.922L865.447 79.6565C865.767 79.0167 866.375 78.2916 867.271 77.4812C868.188 76.6922 869.446 76.2976 871.045 76.2976H891.038C891.998 76.2976 892.798 76.6389 893.438 77.3213C894.077 78.025 894.397 78.8034 894.397 79.6565C894.397 79.9764 894.365 80.2643 894.301 80.5202C894.259 80.7974 894.184 81.096 894.077 81.4159L856.97 149.872V184.26C856.97 185.326 856.565 186.254 855.755 187.043C854.966 187.854 853.985 188.259 852.812 188.259ZM949.898 189.858C939.235 189.858 930.385 188.333 923.347 185.284C916.31 182.255 910.978 178.289 907.353 173.384C903.727 168.479 901.808 163.254 901.595 157.709C901.595 156.856 901.936 156.078 902.618 155.374C903.322 154.692 904.154 154.35 905.113 154.35H925.266C926.759 154.35 927.9 154.617 928.689 155.15C929.5 155.683 930.225 156.376 930.864 157.229C931.718 158.829 932.912 160.375 934.447 161.868C936.004 163.361 938.062 164.555 940.621 165.451C943.18 166.368 946.272 166.826 949.898 166.826C956.082 166.826 960.742 165.866 963.877 163.947C967.033 162.028 968.611 159.415 968.611 156.11C968.611 153.657 967.758 151.685 966.052 150.192C964.346 148.699 961.595 147.334 957.799 146.097C954.024 144.882 948.992 143.634 942.7 142.355C934.597 140.649 927.687 138.431 921.972 135.701C916.278 132.993 911.938 129.42 908.952 124.985C905.967 120.57 904.474 115.057 904.474 108.446C904.474 101.942 906.308 96.1307 909.976 91.0125C913.665 85.8943 918.815 81.8957 925.426 79.0167C932.037 76.1377 939.875 74.6982 948.938 74.6982C956.296 74.6982 962.768 75.6579 968.355 77.5772C973.964 79.4965 978.688 82.0556 982.527 85.2545C986.365 88.4534 989.266 91.8336 991.228 95.395C993.211 98.9777 994.256 102.475 994.362 105.887C994.362 106.74 994.064 107.508 993.467 108.191C992.891 108.894 992.07 109.246 991.004 109.246H969.891C968.718 109.246 967.705 109.033 966.852 108.606C965.999 108.18 965.253 107.487 964.613 106.527C963.973 104.181 962.288 102.123 959.559 100.353C956.85 98.6045 953.31 97.7302 948.938 97.7302C944.247 97.7302 940.589 98.5512 937.966 100.193C935.364 101.857 934.063 104.395 934.063 107.807C934.063 109.939 934.778 111.805 936.207 113.405C937.657 115.004 940.056 116.39 943.404 117.563C946.774 118.736 951.391 119.962 957.255 121.242C966.959 123.055 974.796 125.326 980.767 128.056C986.738 130.764 991.132 134.272 993.947 138.58C996.783 142.909 998.201 148.326 998.201 154.83C998.201 162.081 996.122 168.319 991.963 173.544C987.805 178.769 982.121 182.789 974.913 185.604C967.726 188.44 959.388 189.858 949.898 189.858Z" fill="#BFD3BB"/>
</g>
</g>
</g>
</g>
<g clip-path="url(#clip5_3_8)">
<g clip-path="url(#clip6_3_8)">
<path d="M252.553 12.003H12.003V252.553H252.553V12.003Z" fill="#141C12"/>
<path opacity="0.5" d="M264.556 0H24.006V240.55H264.556V0Z" fill="#141C12"/>
<g clip-path="url(#clip7_3_8)">
<g clip-path="url(#clip8_3_8)">
<path d="M197.755 230.262C138.093 230.262 137.222 230.044 137.004 230.044C134.174 229.827 131.343 229.173 128.512 228.085C127.859 227.867 127.206 227.649 126.553 227.431C117.843 230.044 108.697 230.915 99.3343 229.609C71.0274 225.689 48.3819 202.391 45.5512 173.866C43.156 149.261 54.9143 126.18 76.0356 113.768C78.213 112.462 81.2615 112.897 83.0034 114.857C84.7454 116.817 84.7454 119.865 83.0034 121.825C76.2533 130.099 72.3339 140.551 72.3339 151.22C72.3339 171.688 86.0519 189.544 104.996 195.423C104.778 187.366 107.173 179.31 112.181 172.559C113.488 170.817 115.23 168.64 117.189 166.463C121.109 161.89 126.553 157.535 132.432 152.962C139.617 147.083 147.238 141.204 150.505 135.543C153.117 131.188 155.513 126.833 157.472 123.567C148.98 116.599 143.754 106.583 143.319 95.6953C142.883 83.5015 148.109 71.961 157.69 64.3399L176.852 36.6863C178.158 34.7266 180.771 33.8556 182.949 34.5088C185.126 35.162 186.868 37.3395 186.868 39.7347V56.5011C195.578 57.8076 203.852 62.1625 209.731 68.9126C211.256 70.6546 211.909 72.832 211.909 75.6627C211.909 81.5418 214.957 86.3322 217.352 89.1629C218.659 90.6871 219.312 92.4291 219.312 94.3888C219.312 105.276 214.739 115.292 206.901 122.478C207.989 124.655 208.425 127.268 208.425 129.664C207.118 151.003 197.32 160.801 192.312 164.503V188.019C192.312 192.592 194.054 196.947 197.102 199.995C198.844 201.737 200.804 203.044 202.546 203.915C207.772 205.875 211.473 211.1 211.473 216.762C211.473 224.165 205.159 230.262 197.755 230.262ZM126.77 216.109C127.641 216.109 128.512 216.326 129.165 216.762C130.036 217.197 130.907 217.633 131.996 218.068C133.956 218.721 135.916 219.157 137.658 219.375C139.182 219.375 174.457 219.375 197.538 219.592C199.062 219.592 200.151 218.286 200.151 216.762C200.151 215.455 199.28 214.584 198.409 214.149C195.142 212.842 191.876 210.665 188.828 207.616C183.82 202.391 180.989 195.423 180.989 188.019V161.454C180.989 159.277 182.295 157.317 184.255 156.446C184.691 156.229 195.796 150.567 197.102 128.793C197.102 127.704 196.667 126.397 195.578 125.526C194.271 124.438 193.4 122.696 193.4 120.954C193.4 119.212 194.271 117.688 195.796 116.599C203.199 111.808 207.554 103.752 207.989 95.0421C202.981 89.1629 200.368 82.1951 200.586 75.2272C195.36 69.7836 188.392 66.7351 180.771 66.7351C177.723 66.7351 175.328 64.3399 175.328 61.2915V56.9366L166.182 71.3078C165.747 71.7433 165.529 72.1788 165.093 72.6143C157.908 78.0579 153.988 86.55 154.206 95.4775C154.642 104.623 159.432 112.897 167.489 117.688C170.102 119.212 170.973 122.478 169.231 125.091C167.924 127.268 164.005 134.018 159.868 141.204C155.513 148.607 147.238 155.358 139.182 161.672C133.738 166.027 128.73 169.946 125.464 173.866C123.722 175.826 122.198 177.785 121.109 179.31C116.536 185.624 115.012 193.681 116.972 201.302C117.407 203.044 116.972 205.004 115.883 206.31C114.577 207.616 112.835 208.27 111.093 208.052C83.0034 204.133 61.8821 179.745 61.8821 151.438C61.8821 148.825 62.0999 145.994 62.5354 143.382C57.9627 152.091 55.7852 162.325 56.874 172.777C59.0514 196.294 77.7775 215.673 101.294 218.939C109.568 220.028 117.843 219.157 125.464 216.544C125.682 216.326 126.117 216.109 126.77 216.109Z" fill="#BFD3BB"/>
</g>
</g>
</g>
</g>
</g>
<defs>
<clipPath id="clip0_3_8">
<rect width="998.217" height="264.556" fill="white"/>
</clipPath>
<clipPath id="clip1_3_8">
<rect width="706.474" height="115.16" fill="white" transform="translate(291.743 74.6982)"/>
</clipPath>
<clipPath id="clip2_3_8">
<rect width="706.474" height="115.16" fill="white" transform="translate(291.743 74.6982)"/>
</clipPath>
<clipPath id="clip3_3_8">
<rect width="706.474" height="115.16" fill="white" transform="translate(291.743 74.6982)"/>
</clipPath>
<clipPath id="clip4_3_8">
<rect width="706.474" height="115.16" fill="white" transform="translate(291.743 74.6982)"/>
</clipPath>
<clipPath id="clip5_3_8">
<rect width="264.556" height="264.556" fill="white"/>
</clipPath>
<clipPath id="clip6_3_8">
<rect width="264.556" height="264.556" fill="white"/>
</clipPath>
<clipPath id="clip7_3_8">
<rect width="174.068" height="195.968" fill="white" transform="translate(45.2442 34.2943)"/>
</clipPath>
<clipPath id="clip8_3_8">
<rect width="174.068" height="195.968" fill="white" transform="translate(45.2442 34.2943)"/>
</clipPath>
</defs>
</svg>
